HIERARCHY
ROOT hip
{
	OFFSET 0.000000 0.000000 0.000000 
	CHANNELS 6 Xposition Yposition Zposition Xrotation Zrotation Yrotation
	JOINT abdomen
	{
		OFFSET 0.000000 3.402643 0.000000 
		CHANNELS 3 Xrotation Zrotation Yrotation
		JOINT chest
		{
			OFFSET 0.000000 8.438565 -0.680529 
			CHANNELS 3 Xrotation Zrotation Yrotation
			JOINT neck
			{
				OFFSET 0.000000 10.207942 -0.272212 
				CHANNELS 3 Xrotation Zrotation Yrotation
				JOINT head
				{
					OFFSET 0.000000 3.130431 0.000000 
					CHANNELS 3 Xrotation Zrotation Yrotation
					End Site
					{
						OFFSET 0.000000 3.130435 0.000000 
					}
				}
			}
			JOINT lCollar
			{
				OFFSET 3.470700 6.669187 -0.816635 
				CHANNELS 3 Yrotation Zrotation Xrotation
				JOINT lShldr
				{
					OFFSET 3.198488 0.000000 0.000000 
					CHANNELS 3 Zrotation Yrotation Xrotation
					JOINT lForeArm
					{
						OFFSET 10.139888 0.000000 0.000000 
						CHANNELS 3 Yrotation Zrotation Xrotation
						JOINT lHand
						{
							OFFSET 8.370511 0.000000 0.000000 
							CHANNELS 3 Zrotation Yrotation Xrotation
							End Site
							{
								OFFSET 4.083176 0.000000 0.000000 
							}
						}
					}
				}
			}
			JOINT rCollar
			{
				OFFSET -3.470700 6.669187 -0.816635 
				CHANNELS 3 Yrotation Zrotation Xrotation
				JOINT rShldr
				{
					OFFSET -3.198488 0.000000 0.000000 
					CHANNELS 3 Zrotation Yrotation Xrotation
					JOINT rForeArm
					{
						OFFSET -10.139888 0.000000 0.000000 
						CHANNELS 3 Yrotation Zrotation Xrotation
						JOINT rHand
						{
							OFFSET -8.370511 0.000000 0.000000 
							CHANNELS 3 Zrotation Yrotation Xrotation
							End Site
							{
								OFFSET -4.083176 0.000000 0.000000 
							}
						}
					}
				}
			}
		}
	}
	JOINT lThigh
	{
		OFFSET 5.308129 -1.633274 1.361059 
		CHANNELS 3 Xrotation Zrotation Yrotation
		JOINT lShin
		{
			OFFSET -2.041588 -20.007561 0.000000 
			CHANNELS 3 Xrotation Zrotation Yrotation
			JOINT lFoot
			{
				OFFSET 0.000000 -19.190928 -1.224953 
				CHANNELS 3 Xrotation Yrotation Zrotation
				End Site
				{
					OFFSET 0.000000 -2.449906 4.627600 
				}
			}
		}
	}
	JOINT rThigh
	{
		OFFSET -5.308129 -1.633274 1.361059 
		CHANNELS 3 Xrotation Zrotation Yrotation
		JOINT rShin
		{
			OFFSET 2.041588 -20.007561 0.000000 
			CHANNELS 3 Xrotation Zrotation Yrotation
			JOINT rFoot
			{
				OFFSET 0.000000 -19.190928 -1.224953 
				CHANNELS 3 Xrotation Yrotation Zrotation
				End Site
				{
					OFFSET 0.000000 -2.449906 4.627600 
				}
			}
		}
	}
}
MOTION
Frames: 6
Frame Time: 0.016667
8.867823 74.647850 81.698021 9.327220 -2.746460 9.587740 -16.866400 0.747579 -0.532130 21.337900 -0.302706 -0.121367 14.571500 -0.246605 -1.580290 10.528600 4.546910 -0.494999 2.000000 -2.000000 0.000000 -74.716904 -8.725190 -156.679993 37.744499 -0.322957 0.083748 0.051930 -0.047830 -154.264999 -2.000000 2.000000 0.000000 -95.780899 -172.535004 -6.415530 -30.605801 0.332519 0.069610 -0.057596 0.031864 -148.376999 -22.150518 0.357644 -6.050662 31.977379 2.315205 2.517942 -0.229933 -16.881611 -0.619333 -15.892530 6.003166 -5.660655 13.488546 -1.465280 -1.661319 -5.786445 -11.727827 -2.919339 
9.032297 74.757721 82.185448 9.191030 -2.834290 9.345880 -16.935301 0.899825 -0.681465 21.416000 -0.146468 -0.168238 14.756800 -0.483712 -1.468410 10.655000 4.467890 -0.435349 2.000000 -2.000000 0.000000 -74.941399 -8.207790 -156.761002 38.154701 -0.322355 0.084519 0.051922 -0.047803 -154.255997 -2.000000 2.000000 0.000000 -96.229897 -171.822006 -6.300150 -31.943701 0.330862 0.072338 -0.058623 0.036566 -150.095993 -20.775198 0.096404 -5.730912 31.117867 2.372845 2.442733 0.054896 -17.229874 -0.628038 -15.553124 5.699924 -5.520391 12.587296 -1.418310 -1.601996 -3.822020 -12.038404 -2.647213 
9.192502 74.828712 82.667488 9.171400 -2.824810 8.908950 -17.023600 1.001110 -0.744787 21.503901 -0.009764 -0.175944 15.294000 -0.882116 -1.067800 11.007200 4.425120 -0.217404 2.000000 -2.000000 0.000000 -75.087898 -7.553980 -156.985992 38.789501 -0.321413 0.085705 0.051889 -0.047699 -154.216995 -2.000000 2.000000 0.000000 -96.630096 -171.274994 -6.321060 -33.125401 0.329345 0.074716 -0.059369 0.039621 -151.218994 -19.105473 -0.206814 -5.590569 28.699409 2.396972 2.289652 -0.645012 -17.192471 -0.910855 -15.527694 5.218338 -5.329181 12.095109 -1.414321 -1.575592 -1.825525 -12.301349 -2.291233 
9.348821 74.861183 83.127968 9.200190 -2.757100 8.342260 -17.131399 1.065770 -0.767070 21.572300 0.126933 -0.183275 15.886500 -1.311110 -0.605650 11.388800 4.391570 0.023062 2.000000 -2.000000 0.000000 -75.234596 -6.744430 -157.436005 39.541401 -0.320280 0.087096 0.051897 -0.047725 -154.225998 -2.000000 2.000000 0.000000 -97.001099 -170.981995 -6.380400 -33.965199 0.328238 0.076386 -0.059832 0.041393 -151.873001 -17.411373 -0.489116 -5.598707 25.275621 2.426818 2.076578 -1.874076 -16.910345 -1.300024 -15.760190 4.655684 -5.062762 11.987970 -1.466763 -1.514644 -0.070921 -12.384113 -1.923587 
9.502320 74.859497 83.552162 9.228280 -2.593000 7.781980 -17.238701 1.064110 -0.799669 21.552700 0.283160 -0.200107 16.158800 -1.811000 -0.337956 11.592600 4.234200 0.184228 2.000000 -2.000000 0.000000 -75.391197 -6.032790 -158.003998 40.215302 -0.319249 0.088330 0.052053 -0.048221 -154.412003 -2.000000 2.000000 0.000000 -97.323303 -170.854996 -6.429550 -34.687901 0.327266 0.077810 -0.060227 0.042845 -152.410004 -15.921621 -0.896155 -5.811454 21.715536 2.392152 1.841637 -2.432657 -16.621994 -1.490916 -16.099798 3.898431 -4.510402 12.041940 -1.508400 -1.517045 1.183277 -12.174505 -1.680305 
9.651056 74.825684 83.929504 9.304910 -2.370770 7.306920 -17.384701 1.005290 -0.845986 21.406300 0.400347 -0.238136 16.194500 -2.259180 -0.170948 11.668500 4.030020 0.298774 2.000000 -2.000000 0.000000 -75.489197 -5.389620 -158.621002 40.889099 -0.318204 0.089552 0.052310 -0.049029 -154.714996 -2.000000 2.000000 0.000000 -97.557701 -170.796997 -6.458990 -35.469101 0.326194 0.079336 -0.060696 0.044503 -153.024994 -15.000840 -1.500488 -6.155861 19.133673 2.310283 1.700333 -3.197183 -15.954297 -1.707118 -16.730646 3.005261 -3.670100 12.454176 -1.591748 -1.504378 1.858398 -11.627043 -1.509539 
